<svg aria-hidden="true" style="position: absolute; width: 0; height: 0; overflow: hidden;" version="1.1" xmlns="http://www.w3.org/2000/svg" xmlns:xlink="http://www.w3.org/1999/xlink">
<defs>
<symbol id="icon-Star-transparent" viewBox="0 0 32 32">
<path   d="M13.826 3.262c0.684-2.106 3.663-2.106 4.348 0l1.932 5.945c0.306 0.942 1.184 1.579 2.174 1.579h6.251c2.214 0 3.135 2.833 1.344 4.135l-5.057 3.674c-0.801 0.582-1.136 1.614-0.83 2.556l1.931 5.945c0.684 2.106-1.726 3.857-3.517 2.555l-5.057-3.674c-0.801-0.582-1.886-0.582-2.687 0l-5.057 3.674c-1.791 1.302-4.202-0.45-3.517-2.555l1.932-5.945c0.306-0.942-0.029-1.973-0.83-2.556l-5.057-3.674c-1.791-1.302-0.871-4.135 1.344-4.135h6.251c0.99 0 1.868-0.638 2.174-1.579l1.932-5.945z"></path>
</symbol>
<symbol id="icon-Star-orange" viewBox="0 0 32 32">
<path fill="#eea10c" style="fill: var(--color2, #eea10c)" d="M13.826 3.262c0.684-2.106 3.663-2.106 4.348 0l1.932 5.945c0.306 0.942 1.184 1.579 2.174 1.579h6.251c2.214 0 3.135 2.833 1.344 4.135l-5.057 3.674c-0.801 0.582-1.136 1.614-0.83 2.556l1.931 5.945c0.684 2.106-1.726 3.857-3.517 2.555l-5.057-3.674c-0.801-0.582-1.886-0.582-2.687 0l-5.057 3.674c-1.791 1.302-4.202-0.45-3.517-2.555l1.932-5.945c0.306-0.942-0.029-1.973-0.83-2.556l-5.057-3.674c-1.791-1.302-0.871-4.135 1.344-4.135h6.251c0.99 0 1.868-0.638 2.174-1.579l1.932-5.945z"></path>
</symbol>
<symbol id="icon-heart-white" viewBox="0 0 36 32">
<path fill="#f8f8f8" style="fill: var(--color1, #f8f8f8)" d="M17.767 4.814c-3.258-3.809-8.691-4.834-12.774-1.346s-4.657 9.32-1.451 13.445c2.665 3.43 10.732 10.664 13.376 13.005 0.296 0.262 0.444 0.393 0.616 0.444 0.151 0.045 0.315 0.045 0.466 0 0.172-0.052 0.32-0.183 0.616-0.444 2.644-2.341 10.71-9.575 13.376-13.005 3.206-4.125 2.701-9.994-1.451-13.445s-9.516-2.463-12.774 1.346z"></path>
</symbol>
<symbol id="icon-heart-transparent" viewBox="0 0 35 32">
<path   stroke="#f8f8f8" style="stroke: var(--color1, #f8f8f8)" stroke-linejoin="round" stroke-linecap="round" stroke-miterlimit="4" stroke-width="3.2" d="M17.59 5.933c-2.932-3.428-7.822-4.35-11.496-1.211s-4.191 8.388-1.306 12.101c2.399 3.087 9.659 9.597 12.038 11.705 0.266 0.236 0.399 0.354 0.555 0.4 0.136 0.040 0.284 0.040 0.419 0 0.155-0.046 0.288-0.164 0.555-0.4 2.379-2.107 9.639-8.618 12.038-11.705 2.885-3.713 2.431-8.994-1.306-12.101s-8.564-2.217-11.496 1.211z"></path>
</symbol>
<symbol id="icon-loupe" viewBox="0 0 32 32">
<path d="M30.565 28.436l-5.565-5.52c2.16-2.693 3.206-6.112 2.923-9.553s-1.874-6.643-4.445-8.947-5.928-3.536-9.379-3.441c-3.451 0.094-6.735 1.508-9.177 3.949s-3.855 5.725-3.949 9.177c-0.094 3.451 1.137 6.808 3.441 9.379s5.506 4.162 8.947 4.445c3.441 0.283 6.86-0.763 9.553-2.923l5.52 5.52c0.139 0.141 0.305 0.252 0.488 0.328s0.379 0.115 0.577 0.115c0.198 0 0.394-0.039 0.577-0.115s0.349-0.188 0.488-0.328c0.27-0.28 0.421-0.654 0.421-1.043s-0.151-0.763-0.421-1.042zM14.5 25.001c-2.077 0-4.107-0.616-5.833-1.77s-3.073-2.794-3.867-4.712c-0.795-1.919-1.003-4.030-0.598-6.067s1.405-3.908 2.874-5.376c1.468-1.468 3.339-2.468 5.376-2.874s4.148-0.197 6.067 0.598c1.919 0.795 3.559 2.141 4.712 3.867s1.77 3.757 1.77 5.833c0 2.785-1.106 5.455-3.075 7.425s-4.64 3.075-7.425 3.075z"></path>
</symbol>
</defs>
</svg>
